<?xml version="1.0" standalone="no"?>
<!DOCTYPE svg PUBLIC "-//W3C//DTD SVG 20010904//EN"
 "http://www.w3.org/TR/2001/REC-SVG-20010904/DTD/svg10.dtd">
<svg version="1.0" xmlns="http://www.w3.org/2000/svg"
 width="1024.000000pt" height="1024.000000pt" viewBox="0 0 1024.000000 1024.000000"
 preserveAspectRatio="xMidYMid meet">
<metadata>
Created by potrace 1.14, written by Peter Selinger 2001-2017
</metadata>
<g transform="translate(0.000000,1024.000000) scale(0.100000,-0.100000)"
fill="#000000" stroke="none">
<path d="M1403 8903 l-392 -3 -6 -388 c-8 -495 -8 -6287 0 -6815 l6 -397 3745
0 3744 0 0 3798 0 3799 -632 6 c-581 6 -5561 6 -6465 0z m5125 -243 c2 -20 -5
-53 -17 -79 -12 -26 -244 -619 -516 -1320 -272 -700 -496 -1275 -498 -1278 -7
-6 -57 19 -57 28 0 5 131 345 290 755 160 411 289 749 287 751 -2 2 -16 -28
-31 -67 l-28 -69 -71 36 c-142 71 -429 174 -552 198 l-30 6 40 -33 c22 -17
101 -93 175 -168 130 -129 283 -323 296 -374 4 -17 -75 -246 -91 -264 -1 -1
-30 44 -63 100 -172 294 -428 546 -645 635 -74 31 -159 54 -167 47 -3 -3 -6
-230 -8 -505 l-3 -499 103 0 c122 0 371 22 574 51 81 11 147 19 149 17 1 -2
-19 -55 -44 -118 l-46 -114 -40 -7 c-65 -11 -450 -47 -577 -55 l-118 -6 0
-664 0 -664 648 0 647 0 -3 52 c-17 362 -66 703 -143 1012 -34 134 -83 295
-106 344 -18 37 -31 39 -129 17 -36 -9 -69 -14 -71 -11 -3 3 17 63 45 133 28
70 72 182 97 248 25 66 50 124 55 129 5 5 28 -30 53 -80 25 -49 54 -100 65
-114 l19 -24 189 62 c271 90 379 135 379 157 0 10 7 20 15 23 8 2 55 22 104
45 l89 42 75 -80 c412 -436 663 -952 779 -1603 25 -139 26 -165 26 -472 0
-307 -1 -333 -26 -472 -64 -358 -153 -634 -297 -918 -319 -628 -907 -1169
-1545 -1423 -382 -152 -771 -217 -1205 -202 -567 19 -1138 222 -1603 568 -488
363 -861 873 -1055 1442 -222 648 -225 1331 -9 1985 152 462 378 824 736 1180
262 261 462 405 781 564 253 126 445 191 722 245 251 48 324 54 612 48 219 -4
285 -9 411 -31 265 -46 538 -130 752 -231 92 -43 93 -44 83 -71 -6 -15 -9 -28
-7 -30 4 -4 395 999 416 1066 30 95 83 131 89 60z m83 -374 c22 -44 55 -100
72 -125 54 -80 188 -203 327 -300 159 -112 264 -216 356 -352 61 -91 174 -317
174 -348 0 -10 -11 -12 -42 -7 -24 3 -120 8 -213 12 -250 10 -324 -6 -559
-122 -96 -47 -148 -66 -194 -73 -169 -22 -313 49 -442 219 l-61 80 232 598
c127 328 238 615 247 636 l15 39 24 -89 c13 -49 42 -125 64 -168z m-1241
-2038 c29 -7 54 -17 57 -24 2 -6 -3 -28 -11 -48 l-16 -37 -47 8 c-64 11 -120
8 -138 -7 -24 -20 -18 -72 13 -121 98 -153 411 -306 500 -243 41 28 20 95 -53
173 -46 49 -47 51 -35 85 20 63 32 60 108 -27 81 -94 112 -175 92 -247 -32
-120 -175 -140 -365 -51 -112 52 -189 107 -261 184 -79 84 -109 144 -109 219
0 123 100 174 265 136z"/>
<path d="M4115 7615 c-5 -2 -62 -18 -125 -35 -300 -83 -632 -251 -909 -458
-80 -60 -221 -189 -221 -202 0 -13 160 -76 350 -140 261 -87 224 -94 304 57
75 141 204 339 291 448 75 94 215 234 281 281 60 43 72 64 29 49z"/>
<path d="M4500 7540 c-194 -71 -316 -158 -482 -345 -105 -118 -182 -228 -265
-380 -81 -146 -82 -150 -41 -164 87 -30 624 -91 806 -91 l104 0 -4 483 c-3
265 -8 490 -12 499 -12 27 -28 27 -106 -2z"/>
<path d="M2647 6707 c-314 -389 -530 -850 -613 -1312 -18 -101 -44 -308 -44
-357 l0 -38 554 0 553 0 7 108 c29 466 100 876 216 1247 49 159 62 136 -103
191 -167 55 -398 141 -479 178 l-57 25 -34 -42z"/>
<path d="M6677 6709 c-83 -37 -365 -141 -509 -188 -83 -28 -82 -24 -29 -194
112 -352 179 -740 209 -1212 l7 -110 554 -3 554 -2 -6 97 c-34 515 -242 1069
-563 1496 -129 172 -112 163 -217 116z"/>
<path d="M3558 6374 c-53 -142 -125 -420 -162 -624 -36 -194 -76 -559 -76
-692 l0 -58 650 0 650 0 -2 663 -3 662 -175 12 c-225 16 -510 48 -658 74 -64
12 -135 23 -158 26 l-41 5 -25 -68z"/>
<path d="M1990 4728 c0 -109 37 -350 80 -528 73 -298 187 -567 351 -828 77
-123 198 -288 237 -326 l31 -28 94 40 c107 46 291 114 454 167 62 20 114 39
117 43 4 8 -4 38 -67 253 -98 333 -158 713 -189 1204 l-3 40 -552 3 -553 2 0
-42z"/>
<path d="M3320 4712 c0 -246 66 -708 145 -1020 35 -137 98 -335 114 -361 7
-11 27 -10 122 8 211 39 510 72 794 89 l120 7 0 665 0 665 -647 3 -648 2 0
-58z"/>
<path d="M4840 4102 l0 -668 203 -12 c247 -15 418 -34 646 -73 96 -16 178 -26
182 -22 14 14 78 219 120 380 48 188 81 366 108 583 20 161 41 457 34 473 -2
4 -294 7 -649 7 l-644 0 0 -668z"/>
<path d="M6425 4761 l-70 -6 -3 -50 c-24 -485 -117 -1011 -242 -1369 -11 -33
-17 -63 -13 -67 5 -4 89 -34 188 -67 99 -33 242 -86 318 -116 76 -31 145 -56
155 -56 27 1 55 28 129 130 231 313 398 660 488 1015 44 171 75 355 82 488 l6
107 -484 -2 c-266 -1 -515 -4 -554 -7z"/>
<path d="M4840 2717 c0 -270 4 -498 9 -506 19 -30 149 17 309 112 96 56 254
206 360 340 98 124 259 404 248 432 -13 35 -405 87 -828 109 l-98 5 0 -492z"/>
<path d="M4230 3189 c-274 -30 -526 -71 -543 -88 -11 -11 88 -206 163 -319
182 -278 390 -460 627 -551 45 -17 93 -31 106 -31 l24 0 6 227 c4 124 7 349 7
500 l0 273 -157 -1 c-87 -1 -192 -5 -233 -10z"/>
<path d="M3229 2990 c-164 -55 -352 -130 -367 -145 -10 -10 119 -128 235 -214
202 -151 466 -298 673 -374 129 -48 330 -108 349 -105 8 2 -21 33 -74 78 -190
161 -366 388 -501 645 -68 130 -99 175 -122 175 -9 0 -96 -27 -193 -60z"/>
<path d="M5992 3023 c-10 -16 -43 -73 -72 -128 -153 -287 -332 -517 -529 -678
-41 -34 -69 -63 -64 -64 16 -6 156 32 269 71 259 90 547 245 768 413 111 85
226 186 226 200 0 17 -40 37 -204 98 -130 49 -340 115 -364 115 -6 0 -19 -12
-30 -27z"/>
</g>
</svg>
